# Blender 4.1.1
# www.blender.org
o Cube
v 1.000000 1.000000 -1.000000
v 1.000000 -1.000000 -1.000000
v 1.000000 1.000000 1.000000
v 1.000000 -1.000000 1.000000
v -1.000000 1.000000 -1.000000
v -1.000000 -1.000000 -1.000000
v -1.000000 1.000000 1.000000
v -1.000000 -1.000000 1.000000
vn -0.0000 1.0000 -0.0000
vn -0.0000 -0.0000 1.0000
vn -1.0000 -0.0000 -0.0000
vn -0.0000 -1.0000 -0.0000
vn 1.0000 -0.0000 -0.0000
vn -0.0000 -0.0000 -1.0000
vt 1.000000 0.000000
vt 0.000000 1.000000
vt 0.000000 0.000000
vt 1.000000 1.000000
vt 1.000000 1.000000
vt 0.000000 0.000000
vt 1.000000 0.000000
vt -0.000000 1.000000
s 0
f 5/1/1 3/2/1 1/3/1
f 3/4/2 8/3/2 4/1/2
f 7/5/3 6/6/3 8/1/3
f 2/1/4 8/2/4 6/3/4
f 1/4/5 4/3/5 2/7/5
f 5/4/6 2/3/6 6/1/6
f 5/1/1 7/4/1 3/2/1
f 3/4/2 7/2/2 8/3/2
f 7/5/3 5/2/3 6/6/3
f 2/1/4 4/4/4 8/2/4
f 1/4/5 3/8/5 4/3/5
f 5/4/6 1/2/6 2/3/6
