# Blender 4.0.2
# www.blender.org
o quaddamage
v -0.154421 -0.166342 0.179425
v -0.268268 -0.060896 0.297847
v 0.300969 -0.060896 0.288737
v 0.289584 -0.060896 -0.282874
v -0.063343 -1.823353 0.076945
v -0.086112 -1.461823 0.111105
v -0.120266 -0.271788 0.145265
v 0.118813 -1.461823 0.108828
v -0.086112 -1.461823 -0.082469
v 0.096043 -1.461823 -0.077914
v -0.120266 -0.271788 -0.116629
v 0.118813 -0.271788 -0.112074
v 0.152967 -0.166342 -0.146234
v -0.154421 -0.166342 -0.148511
v 0.152967 -0.271788 0.142988
v 0.084659 -1.823353 0.076945
v 0.061889 -1.823353 -0.043754
v 0.187121 -0.166342 0.174870
v -0.279653 -0.060896 -0.273765
v -0.051958 -1.823353 -0.050586
v 0.004966 -2.230074 0.013180
v 0.505894 1.520797 0.211308
v 0.904360 1.174331 0.209030
v -0.917198 1.189395 -0.221386
v -1.167663 0.270507 -0.216832
v -0.552887 1.581052 -0.225941
v -1.031046 1.309904 0.199921
v -0.530117 1.505733 0.197644
v -0.552887 1.550924 0.193089
v 1.166209 0.270506 0.206753
v 1.450827 0.285570 0.206753
v -1.019661 1.340032 -0.219109
v -1.452281 0.285570 0.204476
v -1.156278 0.285570 0.206753
v -1.452281 0.270507 -0.221386
v -0.848890 -0.452553 -0.219109
v -0.917198 1.204458 0.204476
v -0.530117 1.490669 -0.225941
v 1.006823 1.264713 -0.221386
v 0.528664 1.581052 -0.219109
v -0.017804 -0.663445 -0.219109
v -1.042430 -0.859274 -0.216831
v -1.042430 -0.859274 0.204476
v -0.848890 -0.452553 0.209030
v 0.847436 -0.512808 -0.219109
v -0.017804 -1.235867 -0.216831
v -0.006419 -1.220803 0.206753
v -0.017804 -0.663445 0.209030
v 1.052362 -0.859274 -0.216831
v 0.847436 -0.512808 0.215862
v 1.450827 0.285570 -0.219109
v 0.505894 1.520797 -0.219109
v 0.995438 1.279777 0.204476
v 1.166209 0.285570 -0.216832
v 0.904360 1.174331 -0.219109
v 0.528664 1.596115 0.204476
v 1.052362 -0.859274 0.204476
vn 0.0090 -0.7382 0.6746
vn -0.0000 1.0000 -0.0000
vn -0.0000 -0.1549 0.9879
vn -0.9980 -0.0629 -0.0000
vn 0.0127 -0.3044 0.9524
vn -0.9996 -0.0287 -0.0000
vn -0.9513 -0.3081 -0.0000
vn 0.0107 -0.7416 0.6707
vn -0.6719 -0.7405 0.0134
vn -0.6441 -0.7649 -0.0000
vn 0.0111 -0.0934 0.9956
vn -0.0000 -0.0878 0.9961
vn 0.0249 -0.0855 -0.9960
vn 0.0190 -0.0281 -0.9994
vn 0.0250 -0.0292 -0.9993
vn 0.0045 -0.7938 -0.6081
vn 0.0071 -0.2873 -0.9578
vn 0.0181 -0.3134 -0.9494
vn -0.0102 -0.7700 -0.6380
vn 0.0111 -0.0290 0.9995
vn 0.0083 -0.0285 0.9996
vn 0.0080 -0.2918 0.9565
vn 0.9767 -0.1097 -0.1843
vn 0.0596 -0.0995 -0.9933
vn 0.9924 -0.0225 -0.1210
vn 0.9892 -0.0828 -0.1206
vn 0.9909 -0.0246 -0.1327
vn 0.9314 -0.3421 -0.1247
vn 0.5711 -0.8186 -0.0607
vn 0.9550 -0.2786 -0.1016
vn 0.6868 -0.7267 -0.0137
vn -0.9909 -0.1014 -0.0885
vn -0.9845 -0.1516 -0.0879
vn 0.0593 -0.1465 -0.9874
vn 0.9698 -0.1613 -0.1830
vn 0.0247 0.0218 0.9995
vn -0.0211 0.0008 -0.9998
vn -0.4576 0.8877 0.0514
vn -0.0154 0.0046 -0.9999
vn -0.0130 -0.0033 -0.9999
vn -0.4485 0.8915 0.0641
vn 0.9696 0.2443 0.0176
vn -0.0290 0.0858 0.9959
vn 0.0001 -0.0025 1.0000
vn 0.0309 0.0165 0.9994
vn -0.9269 0.3750 -0.0133
vn -0.9248 0.3803 0.0022
vn -0.0077 0.0076 0.9999
vn 0.9677 -0.2518 0.0089
vn 0.9646 -0.2630 -0.0166
vn 0.0160 -0.0043 -0.9999
vn 0.0160 0.0102 -0.9998
vn -0.0304 0.0104 0.9995
vn -0.0087 0.0338 0.9994
vn 0.6143 -0.7886 0.0280
vn 0.5514 0.8337 -0.0296
vn -0.0019 -0.0047 -1.0000
vn -0.0013 -0.0050 -1.0000
vn -0.9401 -0.3410 -0.0000
vn -0.9414 -0.3370 0.0119
vn -0.0134 -0.0048 0.9999
vn -0.0077 -0.0001 1.0000
vn 0.9225 0.3841 -0.0385
vn 0.9150 0.4034 -0.0000
vn -0.0015 -0.0040 -1.0000
vn 0.0007 -0.0040 -1.0000
vn -0.3447 -0.9378 0.0426
vn -0.3295 -0.9442 -0.0000
vn -0.0025 -0.0100 0.9999
vn -0.0036 -0.0042 1.0000
vn 0.2460 0.9693 -0.0000
vn 0.0019 -0.0054 -1.0000
vn 0.0095 -0.0009 -1.0000
vn 0.3319 -0.9433 -0.0000
vn 0.3231 -0.9460 0.0250
vn 0.0001 -0.0020 1.0000
vn -0.0072 -0.0042 1.0000
vn 0.0445 -0.0065 0.9990
vn 0.0111 -0.0263 0.9996
vn -0.1715 0.9852 -0.0000
vn -0.0080 0.0008 -1.0000
vn -0.0080 -0.0049 -1.0000
vn -0.0144 -0.0089 -0.9999
vn 0.9444 -0.3287 -0.0000
vn -0.9262 0.3769 -0.0000
vn -0.9354 0.3535 -0.0000
vn 0.5610 0.8277 -0.0143
vn 0.9092 0.4164 -0.0000
vn 0.9107 0.4130 0.0097
vn -0.9605 -0.2782 -0.0099
vn -0.9286 0.3707 0.0132
vn -0.0110 -0.0127 -0.9999
vn -0.0038 0.0014 -1.0000
vn -0.9592 -0.2826 -0.0000
vn -0.6562 -0.7546 -0.0000
vn 0.0508 0.0750 0.9959
vn -0.9574 0.2885 -0.0103
vn 0.8936 0.4486 -0.0160
vn 0.6142 -0.7887 0.0279
s 0
f 1//1 18//1 3//1
f 2//2 3//2 4//2
f 21//3 16//3 5//3
f 5//4 6//4 9//4
f 18//5 1//5 7//5
f 11//6 9//6 6//6
f 6//6 7//6 11//6
f 14//7 11//7 7//7
f 7//7 1//7 14//7
f 3//8 2//8 1//8
f 1//9 2//9 19//9
f 19//10 14//10 1//10
f 8//11 6//11 5//11
f 5//12 16//12 8//12
f 20//13 9//13 10//13
f 9//14 11//14 12//14
f 12//15 10//15 9//15
f 4//16 13//16 14//16
f 11//17 14//17 13//17
f 13//18 12//18 11//18
f 14//19 19//19 4//19
f 6//20 8//20 15//20
f 15//21 7//21 6//21
f 7//22 15//22 18//22
f 16//23 17//23 10//23
f 10//24 17//24 20//24
f 8//25 10//25 12//25
f 10//26 8//26 16//26
f 12//27 15//27 8//27
f 15//28 12//28 13//28
f 18//29 13//29 4//29
f 13//30 18//30 15//30
f 4//31 3//31 18//31
f 4//2 19//2 2//2
f 9//32 20//32 5//32
f 5//33 20//33 21//33
f 20//34 17//34 21//34
f 21//35 17//35 16//35
f 22//36 23//36 53//36
f 32//37 24//37 25//37
f 26//38 32//38 27//38
f 38//39 24//39 32//39
f 32//40 26//40 38//40
f 27//41 29//41 26//41
f 38//42 26//42 29//42
f 28//43 29//43 27//43
f 23//44 30//44 31//44
f 31//45 53//45 23//45
f 32//46 35//46 33//46
f 33//47 27//47 32//47
f 27//48 33//48 34//48
f 24//49 37//49 34//49
f 34//50 25//50 24//50
f 25//51 35//51 32//51
f 35//52 25//52 36//52
f 34//53 37//53 27//53
f 27//54 37//54 28//54
f 38//55 28//55 37//55
f 39//56 40//56 56//56
f 36//57 42//57 35//57
f 42//58 36//58 41//58
f 35//59 42//59 43//59
f 43//60 33//60 35//60
f 33//61 43//61 44//61
f 44//62 34//62 33//62
f 25//63 34//63 44//63
f 44//64 36//64 25//64
f 41//65 46//65 42//65
f 46//66 41//66 45//66
f 42//67 46//67 47//67
f 47//68 43//68 42//68
f 48//69 44//69 43//69
f 43//70 47//70 48//70
f 36//71 44//71 48//71
f 48//71 41//71 36//71
f 45//72 49//72 46//72
f 49//73 45//73 54//73
f 46//74 49//74 57//74
f 57//75 47//75 46//75
f 57//76 31//76 30//76
f 50//77 48//77 47//77
f 30//78 50//78 57//78
f 47//79 57//79 50//79
f 50//80 45//80 41//80
f 41//80 48//80 50//80
f 54//81 51//81 49//81
f 51//82 54//82 55//82
f 55//83 39//83 51//83
f 49//84 51//84 31//84
f 45//85 50//85 30//85
f 40//86 52//86 22//86
f 56//87 53//87 39//87
f 53//88 31//88 51//88
f 51//89 39//89 53//89
f 54//90 30//90 23//90
f 30//91 54//91 45//91
f 39//92 55//92 52//92
f 52//93 40//93 39//93
f 23//94 55//94 54//94
f 55//95 23//95 22//95
f 22//95 52//95 55//95
f 53//96 56//96 22//96
f 22//97 56//97 40//97
f 29//98 28//98 38//98
f 37//99 24//99 38//99
f 31//84 57//84 49//84
